<svg xmlns="http://www.w3.org/2000/svg" viewBox="0 0 720 520" role="img" aria-labelledby="t d"><title id="t">Cálculo</title><desc id="d">Plano cartesiano com curva, derivada e integral.</desc><rect width="720" height="520" rx="28" fill="#f7faff"/><g stroke="#d9e8f6" stroke-width="1"><path d="M70 70v370M140 70v370M210 70v370M280 70v370M350 70v370M420 70v370M490 70v370M560 70v370M630 70v370"/><path d="M70 100h560M70 160h560M70 220h560M70 280h560M70 340h560M70 400h560"/></g><path d="M74 390C135 370 170 330 214 265S315 120 385 150s86 159 137 174 77-35 108-96" fill="none" stroke="#1e5faf" stroke-width="9" stroke-linecap="round"/><path d="M250 305l160-136" stroke="#c49a3a" stroke-width="6" stroke-linecap="round"/><circle cx="330" cy="237" r="12" fill="#fff" stroke="#0d2b45" stroke-width="5"/><rect x="78" y="80" width="205" height="92" rx="18" fill="#fff" stroke="#cbdced"/><text x="101" y="125" font-family="Arial,sans-serif" font-size="31" font-weight="700" fill="#0d2b45">f′(x) = lim</text><text x="101" y="154" font-family="Arial,sans-serif" font-size="21" fill="#5e7186">taxa de variação</text><rect x="443" y="350" width="188" height="82" rx="18" fill="#0d2b45"/><text x="470" y="401" font-family="Georgia,serif" font-size="38" fill="#fff">∫ f(x) dx</text></svg>