<svg xmlns="http://www.w3.org/2000/svg" viewBox="0 0 720 520" role="img" aria-labelledby="t d"><title id="t">Systematic investment research process</title><desc id="d">Architecture linking market data, signals, portfolio construction, risk controls and execution.</desc><rect width="720" height="520" rx="28" fill="#f5f8fc"/><rect x="48" y="52" width="624" height="416" rx="25" fill="#fff" stroke="#c8d6e5" stroke-width="3"/><text x="78" y="88" font-family="Arial,sans-serif" font-size="15" font-weight="700" fill="#60758a">SYSTEMATIC RESEARCH PIPELINE</text><g fill="#eef4f9" stroke="#1d5f96" stroke-width="3"><rect x="76" y="126" width="122" height="88" rx="16"/><rect x="222" y="126" width="122" height="88" rx="16"/><rect x="368" y="126" width="122" height="88" rx="16"/><rect x="514" y="126" width="122" height="88" rx="16"/></g><g font-family="Arial,sans-serif" fill="#102c49"><text x="101" y="160" font-size="14">MARKET</text><text x="101" y="188" font-size="19" font-weight="700">Data</text><text x="246" y="160" font-size="14">RESEARCH</text><text x="246" y="188" font-size="19" font-weight="700">Signals</text><text x="389" y="160" font-size="14">PORTFOLIO</text><text x="389" y="188" font-size="19" font-weight="700">Allocation</text><text x="544" y="160" font-size="14">TRADING</text><text x="544" y="188" font-size="19" font-weight="700">Execution</text></g><g stroke="#c69a3a" stroke-width="5" fill="none"><path d="M198 170H222M344 170H368M490 170H514"/></g><rect x="76" y="252" width="388" height="164" rx="18" fill="#102c49"/><path d="M101 379L144 347L187 356L230 301L273 327L316 276L359 299L402 244L438 263" fill="none" stroke="#91bddc" stroke-width="6" stroke-linecap="round" stroke-linejoin="round"/><path d="M101 388H438M101 346H438M101 304H438M101 262H438" stroke="#2d4b68" stroke-width="2"/><text x="99" y="281" font-family="Arial,sans-serif" font-size="14" fill="#dbe6f0">EQUITY · OOS · STRESS TESTS</text><rect x="490" y="252" width="146" height="74" rx="16" fill="#fff6df" stroke="#c69a3a" stroke-width="3"/><text x="512" y="280" font-family="Arial,sans-serif" font-size="13" fill="#82662f">RISK</text><text x="512" y="307" font-family="Arial,sans-serif" font-size="19" font-weight="700" fill="#102c49">Controls</text><rect x="490" y="342" width="146" height="74" rx="16" fill="#eef4f9" stroke="#1d5f96" stroke-width="3"/><text x="512" y="370" font-family="Arial,sans-serif" font-size="13" fill="#60758a">MONITORING</text><text x="512" y="397" font-family="Arial,sans-serif" font-size="19" font-weight="700" fill="#102c49">Governance</text><text x="78" y="446" font-family="Arial,sans-serif" font-size="14" fill="#60758a">Hypothesis · data integrity · costs · robustness · portfolio risk · implementation</text></svg>